<svg width="12" height="15" viewBox="0 0 12 15" fill="none" xmlns="http://www.w3.org/2000/svg">
<path d="M9.99996 5.33329H9.33329V3.99996C9.33329 2.15996 7.83996 0.666626 5.99996 0.666626C4.15996 0.666626 2.66663 2.15996 2.66663 3.99996H3.99996C3.99996 2.89329 4.89329 1.99996 5.99996 1.99996C7.10663 1.99996 7.99996 2.89329 7.99996 3.99996V5.33329H1.99996C1.26663 5.33329 0.666626 5.93329 0.666626 6.66663V13.3333C0.666626 14.0666 1.26663 14.6666 1.99996 14.6666H9.99996C10.7333 14.6666 11.3333 14.0666 11.3333 13.3333V6.66663C11.3333 5.93329 10.7333 5.33329 9.99996 5.33329ZM9.99996 13.3333H1.99996V6.66663H9.99996V13.3333ZM5.99996 11.3333C6.73329 11.3333 7.33329 10.7333 7.33329 9.99996C7.33329 9.26663 6.73329 8.66663 5.99996 8.66663C5.26663 8.66663 4.66663 9.26663 4.66663 9.99996C4.66663 10.7333 5.26663 11.3333 5.99996 11.3333Z" fill="white"/>
</svg>
